M48
; DRILL file {KiCad 5.1.5+dfsg1-2build2} date Mon Apr 26 18:34:44 2021
; FORMAT={-:-/ absolute / metric / decimal}
; #@! TF.CreationDate,2021-04-26T18:34:44+00:00
; #@! TF.GenerationSoftware,Kicad,Pcbnew,5.1.5+dfsg1-2build2
FMAT,2
METRIC
T1C0.200
T2C0.350
T3C0.400
T4C0.440
T5C0.600
T6C0.950
T7C1.000
T8C3.200
%
G90
G05
T1
X113.55Y-100.64
X132.65Y-65.1
X138.03Y-89.49
X138.16Y-86.39
X138.55Y-63.25
X141.15Y-62.6
X144.067Y-62.483
X144.4Y-86.3
X145.63Y-86.36
X147.7Y-67.05
X148.55Y-106.02
X148.85Y-68.15
X149.67Y-106.29
X150.99Y-100.92
X151.0Y-84.3
X151.05Y-68.35
X151.05Y-69.3
X153.04Y-86.33
X155.7Y-63.6
X155.7Y-81.4
X156.3Y-90.95
X156.413Y-62.787
X156.7Y-65.1
X157.9Y-65.25
X158.95Y-87.6
X159.15Y-65.0
X159.85Y-69.05
X160.7Y-87.25
X160.85Y-90.1
X161.2Y-88.4
X161.66Y-79.98
X161.7Y-80.9
X162.3Y-90.75
X162.75Y-87.4
X163.1Y-79.95
X168.2Y-72.9
X168.7Y-72.4
X169.2Y-71.9
X169.7Y-71.4
X170.04Y-82.95
X170.2Y-70.9
X170.39Y-77.24
X170.7Y-70.4
X170.86Y-92.86
X171.4Y-104.8
T3
X89.85Y-84.9
X89.975Y-69.875
X89.975Y-72.375
X89.975Y-74.925
X89.975Y-77.5
X89.975Y-80.025
X89.975Y-82.55
X90.0Y-66.15
X90.1Y-105.1
X90.2Y-88.0
X90.2Y-91.4
X90.2Y-94.05
X90.2Y-99.0
X90.25Y-103.0
X90.94Y-103.732
X90.94Y-104.748
X90.94Y-105.764
X90.95Y-89.375
X90.975Y-90.35
X92.35Y-66.05
X93.15Y-77.475
X93.15Y-86.49
X93.207Y-67.572
X93.207Y-69.858
X93.229Y-72.479
X93.229Y-74.892
X93.254Y-80.242
X93.254Y-82.528
X93.541Y-65.955
X93.65Y-85.25
X93.8Y-88.0
X94.369Y-103.732
X94.369Y-104.748
X94.369Y-105.764
X94.4Y-107.0
X94.7Y-99.85
X94.7Y-102.3
X95.6Y-90.65
X95.6Y-92.4
X95.68Y-88.066
X95.7Y-86.59
X95.827Y-65.955
X96.442Y-89.336
X96.5Y-62.5
X96.7Y-109.8
X97.325Y-92.325
X97.35Y-104.8
X97.425Y-82.575
X97.458Y-88.574
X97.575Y-69.925
X98.05Y-112.05
X98.25Y-64.0
X98.35Y-114.05
X98.415Y-91.943
X98.6Y-94.7
X98.65Y-87.65
X99.0Y-98.45
X99.0Y-100.0
X99.25Y-66.5
X99.3Y-93.85
X99.4Y-102.55
X101.0Y-60.0
X101.5Y-100.8
X101.8Y-114.2
X102.05Y-99.3
X102.3Y-86.2
X103.132Y-63.846
X103.5Y-60.0
X104.85Y-107.7
X104.85Y-110.5
X104.85Y-114.05
X105.0Y-98.55
X105.156Y-85.598
X105.2Y-87.4
X105.418Y-63.846
X106.65Y-60.55
X107.2Y-66.6
X107.7Y-98.9
X107.7Y-104.85
X107.75Y-108.05
X107.75Y-111.55
X108.077Y-87.122
X108.204Y-97.282
X109.25Y-114.0
X109.67Y-107.8
X109.728Y-87.122
X109.728Y-97.282
X110.5Y-58.75
X111.89Y-104.83
X112.776Y-85.598
X112.94Y-58.78
X112.95Y-99.837
X113.661Y-106.914
X114.55Y-107.9
X114.9Y-59.5
X115.65Y-113.5
X116.95Y-66.85
X117.094Y-107.569
X117.15Y-64.0
X117.476Y-87.422
X117.76Y-98.09
X117.92Y-109.73
X117.983Y-92.71
X118.554Y-104.775
X120.5Y-113.5
X120.642Y-87.616
X121.02Y-66.84
X121.15Y-63.3
X121.15Y-65.67
X121.158Y-94.488
X121.92Y-98.68
X123.0Y-89.75
X123.317Y-107.315
X124.968Y-97.155
X125.095Y-91.757
X125.75Y-57.75
X125.89Y-63.18
X126.21Y-87.24
X126.365Y-92.837
X127.33Y-66.93
X127.5Y-62.8
X128.1Y-92.65
X128.8Y-95.05
X129.413Y-93.599
X129.5Y-105.25
X129.81Y-114.39
X130.12Y-101.5
X131.71Y-104.0
X131.9Y-65.9
X132.0Y-88.05
X132.1Y-101.14
X132.11Y-109.68
X132.25Y-111.86
X132.5Y-95.05
X133.41Y-102.52
X133.477Y-93.726
X133.604Y-94.996
X134.41Y-64.19
X134.47Y-89.36
X134.73Y-114.32
X135.85Y-57.75
X136.29Y-63.75
X136.906Y-94.996
X137.0Y-88.88
X137.09Y-104.94
X137.16Y-111.84
X137.287Y-91.694
X138.65Y-111.38
X138.79Y-91.64
X139.75Y-106.5
X139.967Y-89.445
X140.2Y-93.7
X140.35Y-95.25
X140.5Y-91.7
X141.2Y-113.0
X141.44Y-103.75
X141.45Y-98.79
X142.0Y-89.192
X143.14Y-95.49
X143.14Y-97.66
X143.32Y-102.62
X143.333Y-98.935
X143.333Y-101.221
X143.5Y-57.75
X143.67Y-104.77
X143.75Y-114.2
X143.87Y-101.94
X145.05Y-89.6
X145.2Y-91.55
X145.81Y-104.71
X146.35Y-99.56
X146.43Y-114.18
X146.44Y-96.37
X147.46Y-96.3
X148.15Y-85.575
X148.75Y-89.35
X149.05Y-85.45
X149.12Y-103.46
X149.33Y-77.99
X149.38Y-75.38
X149.39Y-69.59
X149.39Y-71.93
X149.415Y-72.962
X149.63Y-68.18
X149.68Y-67.18
X150.1Y-92.6
X150.2Y-86.493
X150.927Y-86.52
X151.01Y-98.57
X151.1Y-57.75
X151.5Y-92.55
X151.55Y-89.4
X151.75Y-110.45
X151.97Y-86.32
X152.05Y-83.35
X152.24Y-103.53
X152.49Y-87.15
X152.76Y-96.4
X152.8Y-94.35
X152.902Y-92.752
X153.0Y-113.5
X153.11Y-87.79
X153.3Y-95.7
X153.65Y-62.6
X154.53Y-82.97
X154.54Y-79.16
X154.7Y-77.31
X154.8Y-75.44
X154.85Y-95.05
X154.86Y-97.36
X154.9Y-73.44
X155.13Y-100.93
X155.2Y-64.85
X155.2Y-113.65
X155.87Y-82.83
X156.1Y-103.4
X156.23Y-69.52
X156.464Y-71.501
X157.09Y-82.8
X157.31Y-70.99
X157.75Y-103.4
X157.93Y-77.19
X158.052Y-70.104
X158.2Y-113.7
X158.38Y-71.73
X158.55Y-80.58
X158.75Y-64.3
X158.9Y-92.3
X159.004Y-81.407
X159.08Y-74.47
X159.15Y-76.37
X159.39Y-79.94
X159.6Y-104.3
X159.9Y-78.2
X160.25Y-113.5
X160.54Y-79.88
X160.8Y-104.075
X160.9Y-79.02
X160.91Y-95.76
X160.939Y-91.899
X161.03Y-101.16
X161.25Y-57.75
X161.25Y-64.35
X161.29Y-73.152
X161.29Y-77.216
X161.48Y-72.12
X161.55Y-105.1
X161.75Y-111.45
X161.798Y-74.168
X161.798Y-76.2
X162.05Y-107.025
X162.1Y-113.025
X162.306Y-73.152
X162.306Y-77.216
X162.814Y-74.168
X162.814Y-76.2
X163.2Y-64.65
X163.27Y-91.72
X163.322Y-73.152
X163.322Y-77.216
X163.39Y-70.34
X163.449Y-82.931
X163.5Y-103.4
X163.539Y-87.48
X163.539Y-89.893
X163.83Y-74.168
X163.83Y-76.2
X163.91Y-101.33
X164.211Y-78.422
X164.338Y-73.152
X164.338Y-77.216
X164.846Y-74.168
X164.846Y-76.2
X165.13Y-82.94
X165.25Y-101.25
X165.85Y-64.35
X166.052Y-83.121
X166.15Y-57.65
X166.55Y-91.1
X166.7Y-63.25
X166.94Y-82.87
X167.38Y-74.0
X167.44Y-75.8
X167.47Y-73.17
X167.65Y-100.7
X168.0Y-93.1
X168.148Y-78.676
X168.148Y-82.867
X168.15Y-62.85
X168.35Y-113.05
X168.4Y-106.9
X168.45Y-96.55
X169.291Y-69.0
X169.4Y-87.4
X169.404Y-65.499
X169.404Y-60.55
X169.404Y-63.55
X169.6Y-106.7
X169.6Y-111.3
X170.022Y-88.357
X170.07Y-80.32
X170.197Y-93.679
X170.65Y-64.1
X170.92Y-78.64
X171.15Y-81.35
X171.16Y-83.1
X171.19Y-86.68
X171.2Y-69.1
X171.2Y-84.49
X171.25Y-65.45
X171.3Y-67.0
X171.35Y-90.35
X171.831Y-91.948
X171.831Y-94.234
X171.958Y-100.52
X172.1Y-108.1
X172.45Y-104.0
X172.85Y-91.75
X173.43Y-100.15
X173.6Y-95.06
X173.65Y-106.1
X174.85Y-91.6
X175.41Y-100.0
X175.47Y-95.03
X176.25Y-95.75
X176.25Y-99.25
X176.65Y-104.9
X176.7Y-102.8
X176.911Y-90.932
T4
X174.5Y-96.15
X174.5Y-97.45
X174.5Y-98.75
X175.5Y-96.8
X175.5Y-98.1
T5
X92.05Y-96.45
X92.75Y-91.35
X95.775Y-99.025
X96.85Y-86.7
X100.2Y-89.0
X103.0Y-87.25
X104.15Y-87.85
X104.15Y-89.0
X115.57Y-97.218
X116.53Y-99.41
X118.63Y-100.94
X119.444Y-92.9
X121.412Y-103.886
X121.412Y-105.664
X122.682Y-103.124
X124.46Y-103.124
X125.222Y-104.394
X125.222Y-105.918
X125.25Y-88.0
X128.67Y-110.19
X136.54Y-101.34
X154.686Y-70.358
X156.3Y-94.6
X156.9Y-98.5
X171.3Y-106.45
T6
X114.45Y-112.15
X116.95Y-112.15
X119.45Y-112.15
X121.95Y-112.15
T7
X119.38Y-83.82
X137.16Y-83.82
X139.7Y-83.82
X121.92Y-76.2
X121.92Y-78.74
X109.22Y-68.58
X137.16Y-68.58
X106.68Y-73.66
X132.08Y-78.74
X121.92Y-81.28
X116.84Y-68.58
X114.3Y-76.2
X132.08Y-81.28
X121.92Y-73.66
X142.68Y-107.91
X145.22Y-107.91
X147.76Y-107.91
X150.3Y-107.91
X99.06Y-78.74
X147.32Y-83.82
X111.76Y-68.58
X114.3Y-78.74
X132.08Y-73.66
X142.24Y-83.82
X121.92Y-71.12
X99.06Y-76.2
X111.76Y-73.66
X132.08Y-71.12
X99.06Y-68.58
X104.14Y-81.28
X144.78Y-83.82
X124.46Y-81.28
X99.06Y-81.28
X134.62Y-81.28
X104.14Y-78.74
X124.46Y-83.82
X124.46Y-73.66
X99.06Y-71.12
X134.62Y-73.66
X104.14Y-73.66
X114.3Y-71.12
X104.14Y-76.2
X99.06Y-73.66
X106.68Y-68.58
X111.76Y-81.28
X104.14Y-71.12
X134.62Y-68.58
X144.78Y-73.66
X101.6Y-73.66
X109.22Y-81.28
X104.14Y-83.82
X121.92Y-68.58
X114.3Y-81.28
X144.78Y-71.12
X124.46Y-71.12
X101.6Y-83.82
X144.78Y-78.74
X134.62Y-76.2
X104.14Y-68.58
X134.62Y-71.12
X101.6Y-68.58
X139.7Y-76.2
X128.42Y-113.2
X130.96Y-113.2
X133.5Y-113.2
X136.04Y-113.2
X90.875Y-68.58
X90.875Y-71.12
X90.875Y-73.66
X90.875Y-76.2
X90.875Y-78.74
X90.875Y-81.28
X90.875Y-83.82
X90.875Y-86.36
X139.7Y-78.74
X142.24Y-68.58
X106.68Y-83.82
X137.16Y-76.2
X99.06Y-83.82
X147.32Y-71.12
X114.3Y-83.82
X144.78Y-76.2
X99.74Y-58.8
X99.74Y-61.34
X102.28Y-58.8
X102.28Y-61.34
X104.82Y-58.8
X104.82Y-61.34
X144.78Y-68.58
X134.62Y-78.74
X116.84Y-83.82
X144.78Y-81.28
X147.32Y-76.2
X127.0Y-81.28
X132.08Y-83.82
X111.76Y-78.74
X127.0Y-76.2
X129.54Y-83.82
X124.46Y-78.74
X127.0Y-78.74
X108.85Y-100.6
X108.85Y-103.14
X131.55Y-90.54
X114.3Y-73.66
X116.84Y-81.28
X111.76Y-71.12
X116.84Y-76.2
X101.1Y-106.3
X103.64Y-106.3
X111.76Y-76.2
X116.84Y-78.74
X121.92Y-83.82
X101.6Y-81.28
X124.46Y-76.2
X119.38Y-76.2
X137.16Y-78.74
X103.124Y-100.457
X103.124Y-102.997
X106.68Y-71.12
X129.54Y-76.2
X100.54Y-112.05
X103.04Y-112.05
X119.38Y-78.74
X137.16Y-81.28
X106.68Y-81.28
X129.54Y-78.74
X119.38Y-71.12
X137.16Y-73.66
X147.32Y-78.74
X129.54Y-71.12
X119.38Y-73.66
X137.16Y-71.12
X147.32Y-81.28
X129.54Y-73.66
X145.22Y-113.19
X147.76Y-113.19
X150.3Y-113.19
X139.7Y-81.28
X147.32Y-73.66
X127.0Y-73.66
X139.7Y-73.66
X124.46Y-68.58
X119.39Y-58.8
X119.39Y-61.34
X121.93Y-58.8
X121.93Y-61.34
X124.47Y-58.8
X124.47Y-61.34
X127.01Y-58.8
X127.01Y-61.34
X129.55Y-58.8
X129.55Y-61.34
X132.09Y-58.8
X132.09Y-61.34
X134.63Y-58.8
X134.63Y-61.34
X137.17Y-58.8
X137.17Y-61.34
X139.71Y-58.8
X139.71Y-61.34
X142.25Y-58.8
X142.25Y-61.34
X144.79Y-58.8
X144.79Y-61.34
X147.33Y-58.8
X147.33Y-61.34
X149.87Y-58.8
X149.87Y-61.34
X152.41Y-58.8
X152.41Y-61.34
X154.95Y-58.8
X154.95Y-61.34
X157.49Y-58.8
X157.49Y-61.34
X160.03Y-58.8
X160.03Y-61.34
X162.57Y-58.8
X162.57Y-61.34
X165.11Y-58.8
X165.11Y-61.34
X167.65Y-58.8
X167.65Y-61.34
X139.7Y-71.12
X114.3Y-68.58
X106.68Y-76.2
X142.24Y-76.2
X101.6Y-71.12
X132.08Y-68.58
X106.68Y-78.74
X109.22Y-83.82
X116.84Y-73.66
X142.24Y-78.74
X101.6Y-78.74
X127.0Y-68.58
X109.22Y-76.2
X111.76Y-83.82
X116.84Y-71.12
X142.24Y-81.28
X101.6Y-76.2
X129.54Y-68.58
X109.22Y-78.74
X127.0Y-71.12
X147.32Y-68.58
X127.0Y-83.82
X119.38Y-81.28
X142.24Y-73.66
X119.38Y-68.58
X109.22Y-71.12
X129.54Y-81.28
X134.62Y-83.82
X96.52Y-68.58
X96.52Y-71.12
X96.52Y-73.66
X96.52Y-76.2
X96.52Y-78.74
X96.52Y-81.28
X96.52Y-83.82
X142.24Y-71.12
X139.7Y-68.58
X109.22Y-73.66
X132.08Y-76.2
T2
X174.22Y-93.875G85X175.22Y-93.875
G05
X174.22Y-101.025G85X175.22Y-101.025
G05
T8
X156.816Y-109.066G85X155.684Y-107.934
G05
X112.316Y-64.066G85X111.184Y-62.934
G05
T0
M30
