G04 #@! TF.GenerationSoftware,KiCad,Pcbnew,5.1.5+dfsg1-2build2*
G04 #@! TF.CreationDate,2021-04-26T18:34:43+00:00*
G04 #@! TF.ProjectId,SH-ESP32,53482d45-5350-4333-922e-6b696361645f,0.3.1*
G04 #@! TF.SameCoordinates,Original*
G04 #@! TF.FileFunction,Soldermask,Bot*
G04 #@! TF.FilePolarity,Negative*
%FSLAX46Y46*%
G04 Gerber Fmt 4.6, Leading zero omitted, Abs format (unit mm)*
G04 Created by KiCad (PCBNEW 5.1.5+dfsg1-2build2) date 2021-04-26 18:34:43*
%MOMM*%
%LPD*%
G04 APERTURE LIST*
G04 #@! TA.AperFunction,Profile*
%ADD10C,0.050000*%
G04 #@! TD*
%ADD11O,1.700000X1.700000*%
%ADD12R,1.700000X1.700000*%
%ADD13C,6.400000*%
%ADD14O,1.700000X1.950000*%
%ADD15C,0.350000*%
%ADD16C,2.100000*%
%ADD17O,1.700000X2.000000*%
%ADD18R,0.840000X0.840000*%
%ADD19C,0.840000*%
%ADD20O,1.850000X0.850000*%
%ADD21C,1.800000*%
%ADD22O,1.800000X1.700000*%
%ADD23R,2.100000X2.100000*%
G04 APERTURE END LIST*
D10*
X178000000Y-90300000D02*
X178000000Y-106500000D01*
X172000000Y-90300000D02*
X172000092Y-63020889D01*
X178000000Y-90300000D02*
X172000000Y-90300000D01*
X169500000Y-115000000D02*
G75*
G02X178000000Y-106500000I8500000J0D01*
G01*
X89000000Y-106500000D02*
G75*
G02X97500000Y-115000000I0J-8500000D01*
G01*
X172000092Y-63020889D02*
G75*
G02X169500000Y-57000000I5999908J6020889D01*
G01*
X97500000Y-57000000D02*
G75*
G02X89000000Y-65500000I-8500000J0D01*
G01*
X169500000Y-115000000D02*
X97500000Y-115000000D01*
X169500000Y-57000000D02*
X97500000Y-57000000D01*
X89000000Y-65500000D02*
X89000000Y-106500000D01*
D11*
G04 #@! TO.C,J202*
X99740000Y-61340000D03*
X99740000Y-58800000D03*
X102280000Y-61340000D03*
X102280000Y-58800000D03*
X104820000Y-61340000D03*
D12*
X104820000Y-58800000D03*
G04 #@! TD*
D13*
G04 #@! TO.C,H1001*
X112315685Y-64065685D02*
X111184315Y-62934315D01*
G04 #@! TD*
G04 #@! TO.C,H1002*
X156815685Y-109065685D02*
X155684315Y-107934315D01*
G04 #@! TD*
D14*
G04 #@! TO.C,J601*
X114450000Y-112150000D03*
X116950000Y-112150000D03*
X119450000Y-112150000D03*
D15*
G36*
X122574504Y-111176204D02*
G01*
X122598773Y-111179804D01*
X122622571Y-111185765D01*
X122645671Y-111194030D01*
X122667849Y-111204520D01*
X122688893Y-111217133D01*
X122708598Y-111231747D01*
X122726777Y-111248223D01*
X122743253Y-111266402D01*
X122757867Y-111286107D01*
X122770480Y-111307151D01*
X122780970Y-111329329D01*
X122789235Y-111352429D01*
X122795196Y-111376227D01*
X122798796Y-111400496D01*
X122800000Y-111425000D01*
X122800000Y-112875000D01*
X122798796Y-112899504D01*
X122795196Y-112923773D01*
X122789235Y-112947571D01*
X122780970Y-112970671D01*
X122770480Y-112992849D01*
X122757867Y-113013893D01*
X122743253Y-113033598D01*
X122726777Y-113051777D01*
X122708598Y-113068253D01*
X122688893Y-113082867D01*
X122667849Y-113095480D01*
X122645671Y-113105970D01*
X122622571Y-113114235D01*
X122598773Y-113120196D01*
X122574504Y-113123796D01*
X122550000Y-113125000D01*
X121350000Y-113125000D01*
X121325496Y-113123796D01*
X121301227Y-113120196D01*
X121277429Y-113114235D01*
X121254329Y-113105970D01*
X121232151Y-113095480D01*
X121211107Y-113082867D01*
X121191402Y-113068253D01*
X121173223Y-113051777D01*
X121156747Y-113033598D01*
X121142133Y-113013893D01*
X121129520Y-112992849D01*
X121119030Y-112970671D01*
X121110765Y-112947571D01*
X121104804Y-112923773D01*
X121101204Y-112899504D01*
X121100000Y-112875000D01*
X121100000Y-111425000D01*
X121101204Y-111400496D01*
X121104804Y-111376227D01*
X121110765Y-111352429D01*
X121119030Y-111329329D01*
X121129520Y-111307151D01*
X121142133Y-111286107D01*
X121156747Y-111266402D01*
X121173223Y-111248223D01*
X121191402Y-111231747D01*
X121211107Y-111217133D01*
X121232151Y-111204520D01*
X121254329Y-111194030D01*
X121277429Y-111185765D01*
X121301227Y-111179804D01*
X121325496Y-111176204D01*
X121350000Y-111175000D01*
X122550000Y-111175000D01*
X122574504Y-111176204D01*
G37*
G04 #@! TD*
D16*
G04 #@! TO.C,REF\002A\002A*
X147320000Y-83820000D03*
G04 #@! TD*
G04 #@! TO.C,REF\002A\002A*
X99060000Y-83820000D03*
G04 #@! TD*
G04 #@! TO.C,REF\002A\002A*
X99060000Y-68580000D03*
G04 #@! TD*
G04 #@! TO.C,REF\002A\002A*
X147320000Y-68580000D03*
G04 #@! TD*
D12*
G04 #@! TO.C,J702*
X150300000Y-107910000D03*
D11*
X147760000Y-107910000D03*
X145220000Y-107910000D03*
X142680000Y-107910000D03*
G04 #@! TD*
D17*
G04 #@! TO.C,J301*
X100540000Y-112050000D03*
D15*
G36*
X103664504Y-111051204D02*
G01*
X103688773Y-111054804D01*
X103712571Y-111060765D01*
X103735671Y-111069030D01*
X103757849Y-111079520D01*
X103778893Y-111092133D01*
X103798598Y-111106747D01*
X103816777Y-111123223D01*
X103833253Y-111141402D01*
X103847867Y-111161107D01*
X103860480Y-111182151D01*
X103870970Y-111204329D01*
X103879235Y-111227429D01*
X103885196Y-111251227D01*
X103888796Y-111275496D01*
X103890000Y-111300000D01*
X103890000Y-112800000D01*
X103888796Y-112824504D01*
X103885196Y-112848773D01*
X103879235Y-112872571D01*
X103870970Y-112895671D01*
X103860480Y-112917849D01*
X103847867Y-112938893D01*
X103833253Y-112958598D01*
X103816777Y-112976777D01*
X103798598Y-112993253D01*
X103778893Y-113007867D01*
X103757849Y-113020480D01*
X103735671Y-113030970D01*
X103712571Y-113039235D01*
X103688773Y-113045196D01*
X103664504Y-113048796D01*
X103640000Y-113050000D01*
X102440000Y-113050000D01*
X102415496Y-113048796D01*
X102391227Y-113045196D01*
X102367429Y-113039235D01*
X102344329Y-113030970D01*
X102322151Y-113020480D01*
X102301107Y-113007867D01*
X102281402Y-112993253D01*
X102263223Y-112976777D01*
X102246747Y-112958598D01*
X102232133Y-112938893D01*
X102219520Y-112917849D01*
X102209030Y-112895671D01*
X102200765Y-112872571D01*
X102194804Y-112848773D01*
X102191204Y-112824504D01*
X102190000Y-112800000D01*
X102190000Y-111300000D01*
X102191204Y-111275496D01*
X102194804Y-111251227D01*
X102200765Y-111227429D01*
X102209030Y-111204329D01*
X102219520Y-111182151D01*
X102232133Y-111161107D01*
X102246747Y-111141402D01*
X102263223Y-111123223D01*
X102281402Y-111106747D01*
X102301107Y-111092133D01*
X102322151Y-111079520D01*
X102344329Y-111069030D01*
X102367429Y-111060765D01*
X102391227Y-111054804D01*
X102415496Y-111051204D01*
X102440000Y-111050000D01*
X103640000Y-111050000D01*
X103664504Y-111051204D01*
G37*
G04 #@! TD*
D18*
G04 #@! TO.C,J401*
X174500000Y-98750000D03*
D19*
X175500000Y-98100000D03*
X174500000Y-97450000D03*
X175500000Y-96800000D03*
X174500000Y-96150000D03*
D20*
X174720000Y-101025000D03*
X174720000Y-93875000D03*
G04 #@! TD*
D12*
G04 #@! TO.C,J203*
X131550000Y-90540000D03*
G04 #@! TD*
D15*
G04 #@! TO.C,JP206*
G36*
X156235000Y-74020000D02*
G01*
X157385000Y-74020000D01*
X156885000Y-74520000D01*
X157385000Y-75020000D01*
X156235000Y-75020000D01*
X156235000Y-74020000D01*
G37*
G36*
X157160000Y-74520000D02*
G01*
X157660000Y-74020000D01*
X158660000Y-74020000D01*
X158660000Y-75020000D01*
X157660000Y-75020000D01*
X157160000Y-74520000D01*
G37*
G04 #@! TD*
D11*
G04 #@! TO.C,J201*
X119390000Y-61340000D03*
X119390000Y-58800000D03*
X121930000Y-61340000D03*
X121930000Y-58800000D03*
X124470000Y-61340000D03*
X124470000Y-58800000D03*
X127010000Y-61340000D03*
X127010000Y-58800000D03*
X129550000Y-61340000D03*
X129550000Y-58800000D03*
X132090000Y-61340000D03*
X132090000Y-58800000D03*
X134630000Y-61340000D03*
X134630000Y-58800000D03*
X137170000Y-61340000D03*
X137170000Y-58800000D03*
X139710000Y-61340000D03*
X139710000Y-58800000D03*
X142250000Y-61340000D03*
X142250000Y-58800000D03*
X144790000Y-61340000D03*
X144790000Y-58800000D03*
X147330000Y-61340000D03*
X147330000Y-58800000D03*
X149870000Y-61340000D03*
X149870000Y-58800000D03*
X152410000Y-61340000D03*
X152410000Y-58800000D03*
X154950000Y-61340000D03*
X154950000Y-58800000D03*
X157490000Y-61340000D03*
X157490000Y-58800000D03*
X160030000Y-61340000D03*
X160030000Y-58800000D03*
X162570000Y-61340000D03*
X162570000Y-58800000D03*
X165110000Y-61340000D03*
X165110000Y-58800000D03*
X167650000Y-61340000D03*
D12*
X167650000Y-58800000D03*
G04 #@! TD*
D15*
G04 #@! TO.C,JP601*
G36*
X112022000Y-102624000D02*
G01*
X113172000Y-102624000D01*
X112672000Y-103124000D01*
X113172000Y-103624000D01*
X112022000Y-103624000D01*
X112022000Y-102624000D01*
G37*
G36*
X112947000Y-103124000D02*
G01*
X113447000Y-102624000D01*
X114447000Y-102624000D01*
X114447000Y-103624000D01*
X113447000Y-103624000D01*
X112947000Y-103124000D01*
G37*
G04 #@! TD*
D21*
G04 #@! TO.C,J303*
X103124000Y-100457000D03*
D22*
X103124000Y-102997000D03*
G04 #@! TD*
D21*
G04 #@! TO.C,J602*
X108850000Y-100600000D03*
D22*
X108850000Y-103140000D03*
G04 #@! TD*
D11*
G04 #@! TO.C,J207*
X96520000Y-68580000D03*
X96520000Y-71120000D03*
X96520000Y-73660000D03*
X96520000Y-76200000D03*
X96520000Y-78740000D03*
X96520000Y-81280000D03*
X96520000Y-83820000D03*
G04 #@! TD*
D23*
G04 #@! TO.C,REF\002A\002A*
X101600000Y-81280000D03*
G04 #@! TD*
G04 #@! TO.C,REF\002A\002A*
X104140000Y-81280000D03*
G04 #@! TD*
G04 #@! TO.C,REF\002A\002A*
X104140000Y-78740000D03*
G04 #@! TD*
G04 #@! TO.C,REF\002A\002A*
X104140000Y-73660000D03*
G04 #@! TD*
G04 #@! TO.C,REF\002A\002A*
X99060000Y-73660000D03*
G04 #@! TD*
G04 #@! TO.C,REF\002A\002A*
X101600000Y-73660000D03*
G04 #@! TD*
G04 #@! TO.C,REF\002A\002A*
X101600000Y-71120000D03*
G04 #@! TD*
G04 #@! TO.C,REF\002A\002A*
X101600000Y-78740000D03*
G04 #@! TD*
G04 #@! TO.C,REF\002A\002A*
X101600000Y-76200000D03*
G04 #@! TD*
G04 #@! TO.C,REF\002A\002A*
X99060000Y-78740000D03*
G04 #@! TD*
G04 #@! TO.C,REF\002A\002A*
X99060000Y-76200000D03*
G04 #@! TD*
G04 #@! TO.C,REF\002A\002A*
X99060000Y-81280000D03*
G04 #@! TD*
G04 #@! TO.C,REF\002A\002A*
X99060000Y-71120000D03*
G04 #@! TD*
G04 #@! TO.C,REF\002A\002A*
X104140000Y-76200000D03*
G04 #@! TD*
G04 #@! TO.C,REF\002A\002A*
X104140000Y-71120000D03*
G04 #@! TD*
G04 #@! TO.C,REF\002A\002A*
X104140000Y-83820000D03*
G04 #@! TD*
G04 #@! TO.C,REF\002A\002A*
X101600000Y-83820000D03*
G04 #@! TD*
G04 #@! TO.C,REF\002A\002A*
X104140000Y-68580000D03*
G04 #@! TD*
G04 #@! TO.C,REF\002A\002A*
X101600000Y-68580000D03*
G04 #@! TD*
D11*
G04 #@! TO.C,J206*
X90875000Y-68580000D03*
X90875000Y-71120000D03*
X90875000Y-73660000D03*
X90875000Y-76200000D03*
X90875000Y-78740000D03*
X90875000Y-81280000D03*
X90875000Y-83820000D03*
D12*
X90875000Y-86360000D03*
G04 #@! TD*
D11*
G04 #@! TO.C,J302*
X103640000Y-106300000D03*
D12*
X101100000Y-106300000D03*
G04 #@! TD*
D15*
G04 #@! TO.C,JP208*
G36*
X156235000Y-75920000D02*
G01*
X157385000Y-75920000D01*
X156885000Y-76420000D01*
X157385000Y-76920000D01*
X156235000Y-76920000D01*
X156235000Y-75920000D01*
G37*
G36*
X157160000Y-76420000D02*
G01*
X157660000Y-75920000D01*
X158660000Y-75920000D01*
X158660000Y-76920000D01*
X157660000Y-76920000D01*
X157160000Y-76420000D01*
G37*
G04 #@! TD*
G04 #@! TO.C,JP209*
G36*
X156235000Y-72120000D02*
G01*
X157385000Y-72120000D01*
X156885000Y-72620000D01*
X157385000Y-73120000D01*
X156235000Y-73120000D01*
X156235000Y-72120000D01*
G37*
G36*
X157160000Y-72620000D02*
G01*
X157660000Y-72120000D01*
X158660000Y-72120000D01*
X158660000Y-73120000D01*
X157660000Y-73120000D01*
X157160000Y-72620000D01*
G37*
G04 #@! TD*
G04 #@! TO.C,JP207*
G36*
X153330000Y-79960000D02*
G01*
X153330000Y-81110000D01*
X152830000Y-80610000D01*
X152330000Y-81110000D01*
X152330000Y-79960000D01*
X153330000Y-79960000D01*
G37*
G36*
X152830000Y-80885000D02*
G01*
X153330000Y-81385000D01*
X153330000Y-82385000D01*
X152330000Y-82385000D01*
X152330000Y-81385000D01*
X152830000Y-80885000D01*
G37*
G04 #@! TD*
G04 #@! TO.C,JP205*
G36*
X156235000Y-77820000D02*
G01*
X157385000Y-77820000D01*
X156885000Y-78320000D01*
X157385000Y-78820000D01*
X156235000Y-78820000D01*
X156235000Y-77820000D01*
G37*
G36*
X157160000Y-78320000D02*
G01*
X157660000Y-77820000D01*
X158660000Y-77820000D01*
X158660000Y-78820000D01*
X157660000Y-78820000D01*
X157160000Y-78320000D01*
G37*
G04 #@! TD*
G04 #@! TO.C,JP204*
G36*
X155300000Y-79950000D02*
G01*
X155300000Y-81100000D01*
X154800000Y-80600000D01*
X154300000Y-81100000D01*
X154300000Y-79950000D01*
X155300000Y-79950000D01*
G37*
G36*
X154800000Y-80875000D02*
G01*
X155300000Y-81375000D01*
X155300000Y-82375000D01*
X154300000Y-82375000D01*
X154300000Y-81375000D01*
X154800000Y-80875000D01*
G37*
G04 #@! TD*
G04 #@! TO.C,JP203*
G36*
X165360000Y-80120000D02*
G01*
X165360000Y-81270000D01*
X164860000Y-80770000D01*
X164360000Y-81270000D01*
X164360000Y-80120000D01*
X165360000Y-80120000D01*
G37*
G36*
X164860000Y-81045000D02*
G01*
X165360000Y-81545000D01*
X165360000Y-82545000D01*
X164360000Y-82545000D01*
X164360000Y-81545000D01*
X164860000Y-81045000D01*
G37*
G04 #@! TD*
G04 #@! TO.C,JP202*
G36*
X167320000Y-80120000D02*
G01*
X167320000Y-81270000D01*
X166820000Y-80770000D01*
X166320000Y-81270000D01*
X166320000Y-80120000D01*
X167320000Y-80120000D01*
G37*
G36*
X166820000Y-81045000D02*
G01*
X167320000Y-81545000D01*
X167320000Y-82545000D01*
X166320000Y-82545000D01*
X166320000Y-81545000D01*
X166820000Y-81045000D01*
G37*
G04 #@! TD*
G04 #@! TO.C,JP201*
G36*
X157280000Y-79955000D02*
G01*
X157280000Y-81105000D01*
X156780000Y-80605000D01*
X156280000Y-81105000D01*
X156280000Y-79955000D01*
X157280000Y-79955000D01*
G37*
G36*
X156780000Y-80880000D02*
G01*
X157280000Y-81380000D01*
X157280000Y-82380000D01*
X156280000Y-82380000D01*
X156280000Y-81380000D01*
X156780000Y-80880000D01*
G37*
G04 #@! TD*
D23*
G04 #@! TO.C,REF\002A\002A*
X109220000Y-68580000D03*
G04 #@! TD*
G04 #@! TO.C,REF\002A\002A*
X106680000Y-68580000D03*
G04 #@! TD*
G04 #@! TO.C,REF\002A\002A*
X147320000Y-71120000D03*
G04 #@! TD*
G04 #@! TO.C,REF\002A\002A*
X144780000Y-68580000D03*
G04 #@! TD*
G04 #@! TO.C,REF\002A\002A*
X147320000Y-76200000D03*
G04 #@! TD*
G04 #@! TO.C,REF\002A\002A*
X147320000Y-78740000D03*
G04 #@! TD*
G04 #@! TO.C,REF\002A\002A*
X147320000Y-81280000D03*
G04 #@! TD*
G04 #@! TO.C,REF\002A\002A*
X147320000Y-73660000D03*
G04 #@! TD*
G04 #@! TO.C,REF\002A\002A*
X124460000Y-68580000D03*
G04 #@! TD*
G04 #@! TO.C,REF\002A\002A*
X114300000Y-68580000D03*
G04 #@! TD*
G04 #@! TO.C,REF\002A\002A*
X132080000Y-68580000D03*
G04 #@! TD*
G04 #@! TO.C,REF\002A\002A*
X127000000Y-68580000D03*
G04 #@! TD*
G04 #@! TO.C,REF\002A\002A*
X129540000Y-68580000D03*
G04 #@! TD*
G04 #@! TO.C,REF\002A\002A*
X119380000Y-68580000D03*
G04 #@! TD*
G04 #@! TO.C,REF\002A\002A*
X139700000Y-68580000D03*
G04 #@! TD*
G04 #@! TO.C,REF\002A\002A*
X137160000Y-68580000D03*
G04 #@! TD*
G04 #@! TO.C,REF\002A\002A*
X116840000Y-68580000D03*
G04 #@! TD*
G04 #@! TO.C,REF\002A\002A*
X111760000Y-68580000D03*
G04 #@! TD*
G04 #@! TO.C,REF\002A\002A*
X134620000Y-68580000D03*
G04 #@! TD*
G04 #@! TO.C,REF\002A\002A*
X121920000Y-68580000D03*
G04 #@! TD*
G04 #@! TO.C,REF\002A\002A*
X142240000Y-68580000D03*
G04 #@! TD*
G04 #@! TO.C,REF\002A\002A*
X121920000Y-83820000D03*
G04 #@! TD*
G04 #@! TO.C,REF\002A\002A*
X109220000Y-83820000D03*
G04 #@! TD*
G04 #@! TO.C,REF\002A\002A*
X111760000Y-83820000D03*
G04 #@! TD*
G04 #@! TO.C,REF\002A\002A*
X127000000Y-83820000D03*
G04 #@! TD*
G04 #@! TO.C,REF\002A\002A*
X134620000Y-83820000D03*
G04 #@! TD*
G04 #@! TO.C,REF\002A\002A*
X119380000Y-83820000D03*
G04 #@! TD*
G04 #@! TO.C,REF\002A\002A*
X137160000Y-83820000D03*
G04 #@! TD*
G04 #@! TO.C,REF\002A\002A*
X139700000Y-83820000D03*
G04 #@! TD*
G04 #@! TO.C,REF\002A\002A*
X142240000Y-83820000D03*
G04 #@! TD*
G04 #@! TO.C,REF\002A\002A*
X144780000Y-83820000D03*
G04 #@! TD*
G04 #@! TO.C,REF\002A\002A*
X124460000Y-83820000D03*
G04 #@! TD*
G04 #@! TO.C,REF\002A\002A*
X106680000Y-83820000D03*
G04 #@! TD*
G04 #@! TO.C,REF\002A\002A*
X114300000Y-83820000D03*
G04 #@! TD*
G04 #@! TO.C,REF\002A\002A*
X116840000Y-83820000D03*
G04 #@! TD*
G04 #@! TO.C,REF\002A\002A*
X132080000Y-83820000D03*
G04 #@! TD*
G04 #@! TO.C,REF\002A\002A*
X129540000Y-83820000D03*
G04 #@! TD*
G04 #@! TO.C,REF\002A\002A*
X114300000Y-73660000D03*
G04 #@! TD*
G04 #@! TO.C,REF\002A\002A*
X111760000Y-71120000D03*
G04 #@! TD*
G04 #@! TO.C,REF\002A\002A*
X111760000Y-76200000D03*
G04 #@! TD*
G04 #@! TO.C,REF\002A\002A*
X124460000Y-76200000D03*
G04 #@! TD*
G04 #@! TO.C,REF\002A\002A*
X106680000Y-71120000D03*
G04 #@! TD*
G04 #@! TO.C,REF\002A\002A*
X106680000Y-81280000D03*
G04 #@! TD*
G04 #@! TO.C,REF\002A\002A*
X106680000Y-76200000D03*
G04 #@! TD*
G04 #@! TO.C,REF\002A\002A*
X106680000Y-78740000D03*
G04 #@! TD*
G04 #@! TO.C,REF\002A\002A*
X109220000Y-76200000D03*
G04 #@! TD*
G04 #@! TO.C,REF\002A\002A*
X109220000Y-78740000D03*
G04 #@! TD*
G04 #@! TO.C,REF\002A\002A*
X109220000Y-71120000D03*
G04 #@! TD*
G04 #@! TO.C,REF\002A\002A*
X109220000Y-73660000D03*
G04 #@! TD*
G04 #@! TO.C,REF\002A\002A*
X106680000Y-73660000D03*
G04 #@! TD*
G04 #@! TO.C,REF\002A\002A*
X114300000Y-76200000D03*
G04 #@! TD*
G04 #@! TO.C,REF\002A\002A*
X114300000Y-78740000D03*
G04 #@! TD*
G04 #@! TO.C,REF\002A\002A*
X111760000Y-73660000D03*
G04 #@! TD*
G04 #@! TO.C,REF\002A\002A*
X114300000Y-81280000D03*
G04 #@! TD*
G04 #@! TO.C,REF\002A\002A*
X111760000Y-78740000D03*
G04 #@! TD*
G04 #@! TO.C,REF\002A\002A*
X124460000Y-78740000D03*
G04 #@! TD*
G04 #@! TO.C,REF\002A\002A*
X116840000Y-81280000D03*
G04 #@! TD*
G04 #@! TO.C,REF\002A\002A*
X116840000Y-76200000D03*
G04 #@! TD*
G04 #@! TO.C,REF\002A\002A*
X116840000Y-78740000D03*
G04 #@! TD*
G04 #@! TO.C,REF\002A\002A*
X119380000Y-76200000D03*
G04 #@! TD*
G04 #@! TO.C,REF\002A\002A*
X119380000Y-78740000D03*
G04 #@! TD*
G04 #@! TO.C,REF\002A\002A*
X119380000Y-71120000D03*
G04 #@! TD*
G04 #@! TO.C,REF\002A\002A*
X119380000Y-73660000D03*
G04 #@! TD*
G04 #@! TO.C,REF\002A\002A*
X116840000Y-73660000D03*
G04 #@! TD*
G04 #@! TO.C,REF\002A\002A*
X116840000Y-71120000D03*
G04 #@! TD*
G04 #@! TO.C,REF\002A\002A*
X119380000Y-81280000D03*
G04 #@! TD*
G04 #@! TO.C,REF\002A\002A*
X121920000Y-76200000D03*
G04 #@! TD*
G04 #@! TO.C,REF\002A\002A*
X121920000Y-78740000D03*
G04 #@! TD*
G04 #@! TO.C,REF\002A\002A*
X121920000Y-81280000D03*
G04 #@! TD*
G04 #@! TO.C,REF\002A\002A*
X121920000Y-73660000D03*
G04 #@! TD*
G04 #@! TO.C,REF\002A\002A*
X121920000Y-71120000D03*
G04 #@! TD*
G04 #@! TO.C,REF\002A\002A*
X124460000Y-81280000D03*
G04 #@! TD*
G04 #@! TO.C,REF\002A\002A*
X124460000Y-73660000D03*
G04 #@! TD*
G04 #@! TO.C,REF\002A\002A*
X114300000Y-71120000D03*
G04 #@! TD*
G04 #@! TO.C,REF\002A\002A*
X111760000Y-81280000D03*
G04 #@! TD*
G04 #@! TO.C,REF\002A\002A*
X109220000Y-81280000D03*
G04 #@! TD*
G04 #@! TO.C,REF\002A\002A*
X124460000Y-71120000D03*
G04 #@! TD*
G04 #@! TO.C,REF\002A\002A*
X134620000Y-76200000D03*
G04 #@! TD*
G04 #@! TO.C,REF\002A\002A*
X134620000Y-78740000D03*
G04 #@! TD*
G04 #@! TO.C,REF\002A\002A*
X127000000Y-81280000D03*
G04 #@! TD*
G04 #@! TO.C,REF\002A\002A*
X127000000Y-76200000D03*
G04 #@! TD*
G04 #@! TO.C,REF\002A\002A*
X127000000Y-78740000D03*
G04 #@! TD*
G04 #@! TO.C,REF\002A\002A*
X129540000Y-76200000D03*
G04 #@! TD*
G04 #@! TO.C,REF\002A\002A*
X129540000Y-78740000D03*
G04 #@! TD*
G04 #@! TO.C,REF\002A\002A*
X129540000Y-71120000D03*
G04 #@! TD*
G04 #@! TO.C,REF\002A\002A*
X129540000Y-73660000D03*
G04 #@! TD*
G04 #@! TO.C,REF\002A\002A*
X127000000Y-73660000D03*
G04 #@! TD*
G04 #@! TO.C,REF\002A\002A*
X127000000Y-71120000D03*
G04 #@! TD*
G04 #@! TO.C,REF\002A\002A*
X129540000Y-81280000D03*
G04 #@! TD*
G04 #@! TO.C,REF\002A\002A*
X132080000Y-76200000D03*
G04 #@! TD*
G04 #@! TO.C,REF\002A\002A*
X132080000Y-78740000D03*
G04 #@! TD*
G04 #@! TO.C,REF\002A\002A*
X132080000Y-81280000D03*
G04 #@! TD*
G04 #@! TO.C,REF\002A\002A*
X132080000Y-73660000D03*
G04 #@! TD*
G04 #@! TO.C,REF\002A\002A*
X132080000Y-71120000D03*
G04 #@! TD*
G04 #@! TO.C,REF\002A\002A*
X134620000Y-81280000D03*
G04 #@! TD*
G04 #@! TO.C,REF\002A\002A*
X134620000Y-73660000D03*
G04 #@! TD*
G04 #@! TO.C,REF\002A\002A*
X134620000Y-71120000D03*
G04 #@! TD*
G04 #@! TO.C,REF\002A\002A*
X139700000Y-76200000D03*
G04 #@! TD*
G04 #@! TO.C,REF\002A\002A*
X139700000Y-78740000D03*
G04 #@! TD*
G04 #@! TO.C,REF\002A\002A*
X137160000Y-76200000D03*
G04 #@! TD*
G04 #@! TO.C,REF\002A\002A*
X137160000Y-78740000D03*
G04 #@! TD*
G04 #@! TO.C,REF\002A\002A*
X137160000Y-81280000D03*
G04 #@! TD*
G04 #@! TO.C,REF\002A\002A*
X137160000Y-73660000D03*
G04 #@! TD*
G04 #@! TO.C,REF\002A\002A*
X137160000Y-71120000D03*
G04 #@! TD*
G04 #@! TO.C,REF\002A\002A*
X139700000Y-81280000D03*
G04 #@! TD*
G04 #@! TO.C,REF\002A\002A*
X139700000Y-73660000D03*
G04 #@! TD*
G04 #@! TO.C,REF\002A\002A*
X139700000Y-71120000D03*
G04 #@! TD*
G04 #@! TO.C,REF\002A\002A*
X142240000Y-76200000D03*
G04 #@! TD*
G04 #@! TO.C,REF\002A\002A*
X142240000Y-78740000D03*
G04 #@! TD*
G04 #@! TO.C,REF\002A\002A*
X142240000Y-81280000D03*
G04 #@! TD*
G04 #@! TO.C,REF\002A\002A*
X142240000Y-73660000D03*
G04 #@! TD*
G04 #@! TO.C,REF\002A\002A*
X142240000Y-71120000D03*
G04 #@! TD*
G04 #@! TO.C,REF\002A\002A*
X144780000Y-73660000D03*
G04 #@! TD*
G04 #@! TO.C,REF\002A\002A*
X144780000Y-71120000D03*
G04 #@! TD*
G04 #@! TO.C,REF\002A\002A*
X144780000Y-78740000D03*
G04 #@! TD*
G04 #@! TO.C,REF\002A\002A*
X144780000Y-76200000D03*
G04 #@! TD*
G04 #@! TO.C,REF\002A\002A*
X144780000Y-81280000D03*
G04 #@! TD*
D12*
G04 #@! TO.C,J801*
X150300000Y-113190000D03*
D11*
X147760000Y-113190000D03*
X145220000Y-113190000D03*
G04 #@! TD*
G04 #@! TO.C,J901*
X136040000Y-113200000D03*
X133500000Y-113200000D03*
X130960000Y-113200000D03*
D12*
X128420000Y-113200000D03*
G04 #@! TD*
M02*
